# WaveFront *.obj file (generated by CINEMA 4D)

mtllib ./box.mtl

v -1.90499114990234 -0.94475990533829 1.2151837348938
v -1.4907466173172 1.94287157058716 0.03404030576348
v 0.41956156492233 -0.85186356306076 2.25754976272583
v 0.83380609750748 2.0357677936554 1.07640635967255
v 1.4907466173172 -1.94287157058716 -0.03404030576348
v 1.90499114990234 0.94475990533829 -1.2151837348938
v -0.83380609750748 -2.0357677936554 -1.07640635967255
v -0.41956156492233 0.85186356306076 -2.25754976272583
# 8 vertices

vn -0.38883811235428 0.3960337638855 0.83184266090393
vn 0.91185563802719 0.03644059225917 0.40889039635658
vn 0.38883808255196 -0.3960337638855 -0.83184266090393
vn -0.91185563802719 -0.03644059970975 -0.40889039635658
vn -0.13162156939507 -0.91751259565353 0.37529510259628
# 5 normals

vt 0 0 0
vt 0 1 0
vt 1 1 0
vt 1 0 0
# 4 texture coordinates

o CAixa.1
usemtl Mat.21
f 3/4/1 4/3/1 2/2/1 1/1/1
f 5/4/2 6/3/2 4/2/2 3/1/2
f 7/4/3 8/3/3 6/2/3 5/1/3
f 1/4/4 2/3/4 8/2/4 7/1/4
f 5/4/5 3/3/5 1/2/5 7/1/5

v -1.47837853431702 1.88455355167389 0.01146342139691
v -1.68098616600037 2.49316835403442 0.38799750804901
v -1.88359379768372 3.10178327560425 0.76453161239624
v -0.33253768086433 1.89320778846741 0.56561851501465
v -0.52656292915344 2.53179049491882 0.92308861017227
v -0.73775291442871 3.11043739318848 1.31868672370911
v 0.81330317258835 1.90186202526093 1.11977362632751
v 0.61069560050964 2.51047682762146 1.49630761146545
v 0.40808796882629 3.11909174919128 1.87284171581268
v -1.4697961807251 1.91452157497406 -0.00760053005069
v -1.67240381240845 2.52313637733459 0.36893355846405
v -1.8750114440918 3.13175106048584 0.74546766281128
v -0.32395532727242 1.92317581176758 0.54655456542969
v -0.72917056083679 3.14040541648865 1.29962277412415
v 0.82188552618027 1.9318300485611 1.10070967674255
v 0.61927789449692 2.54044485092163 1.47724366188049
v 0.41667029261589 3.14905953407288 1.85377776622772
# 17 vertices

vn 0.35286483168602 0.57442021369934 -0.73859852552414
vn 0.35286486148834 0.57442021369934 -0.73859858512878
vn 0.35286486148834 0.5744201540947 -0.73859858512878
vn 0.35286483168602 0.5744201540947 -0.73859858512878
vn 0.35286486148834 0.5744201540947 -0.73859858512878
vn -0.89646339416504 -0.02471368759871 -0.44242811203003
vn -0.89646339416504 -0.02471366897225 -0.44242802262306
vn 0.3606313765049 -0.57195961475372 -0.73675453662872
vn 0.36063158512115 -0.57195889949799 -0.73675495386124
vn -0.89646345376968 -0.02471364662051 -0.44242796301842
vn -0.36063149571419 0.57195907831192 0.73675489425659
vn -0.36063152551651 0.57195907831192 0.73675489425659
vn 0.89646422863007 0.0247147642076 0.44242632389069
vn 0.89646434783936 0.02471497654915 0.44242608547211
vn 0.36063116788864 -0.57196033000946 -0.73675405979156
vn -0.36063155531883 0.57195907831192 0.73675483465195
vn 0.89646410942078 0.02471455186605 0.44242659211159
# 17 normals

vt 0 0.5 0
vt 0.5 0.5 0
vt 0.5 0 0
vt 1 0.5 0
vt 0.5 1 0
# 5 texture coordinates

o Plane.8
usemtl Mat.21
f 19/7/7 13/6/7 21/5/6 18/1/6
f 20/4/9 22/8/8 13/6/7 19/7/7
f 13/6/7 24/9/7 23/2/6 21/5/6
f 22/8/8 25/3/10 24/9/7 13/6/7
f 10/7/12 19/7/12 18/1/11 9/1/11
f 9/1/14 18/1/14 21/5/13 12/5/13
f 11/4/15 20/4/15 19/7/12 10/7/12
f 14/8/17 22/8/17 20/4/16 11/4/16
f 15/2/19 23/2/19 24/9/18 16/9/18
f 12/5/13 21/5/13 23/2/20 15/2/20
f 17/3/21 25/3/21 22/8/17 14/8/17
f 16/9/18 24/9/18 25/3/22 17/3/22

v -0.42931997776031 0.88624131679535 -2.25492763519287
v -0.11062896251678 1.52318286895752 -2.93625354766846
v 0.20806205272675 2.1601243019104 -3.61757969856262
v 0.71652090549469 0.89489555358887 -1.70077240467072
v 1.03826725482941 1.50250148773193 -2.38665080070496
v 1.35390293598175 2.16877865791321 -3.06342458724976
v 1.86236178874969 0.90354973077774 -1.14661741256714
v 2.18105268478394 1.54049134254456 -1.82794344425201
v 2.49974370002747 2.17743277549744 -2.50926947593689
v -0.42626461386681 0.85690569877625 -2.25947976112366
v -0.10757359862328 1.49384725093842 -2.94080591201782
v 0.21111741662025 2.13078880310059 -3.62213182449341
v 0.71957623958588 0.86555993556976 -1.70532464981079
v 1.35695827007294 2.13944315910339 -3.06797695159912
v 1.86541712284088 0.87421417236328 -1.15116953849792
v 2.18410801887512 1.51115572452545 -1.83249568939209
v 2.50279903411865 2.14809727668762 -2.51382184028625
# 17 vertices

vn 0.286052942276 -0.76307368278503 -0.57956218719482
vn 0.28605291247368 -0.76307368278503 -0.57956218719482
vn 0.28605297207832 -0.76307368278503 -0.57956218719482
vn 0.28605297207832 -0.76307368278503 -0.57956212759018
vn 0.28605288267136 -0.76307368278503 -0.57956218719482
vn -0.89646470546722 -0.024713113904 -0.44242548942566
vn -0.8964649438858 -0.02471266686916 -0.4424250125885
vn -0.42700099945068 -0.18192176520824 0.885762155056
vn -0.42700093984604 -0.18192292749882 0.88576197624207
vn -0.89646518230438 -0.02471222169697 -0.44242450594902
vn 0.4270007610321 0.18192511796951 -0.8857616186142
vn 0.42700085043907 0.18192318081856 -0.88576191663742
vn 0.89646464586258 0.02471327781677 0.44242560863495
vn 0.89646410942078 0.02471487410367 0.44242659211159
vn -0.42700108885765 -0.18192061781883 0.88576233386993
vn 0.42700102925301 0.18192125856876 -0.88576227426529
vn 0.89646518230438 0.02471168339252 0.44242465496063
# 17 normals

# 0 texture coordinate

o Plane.7
usemtl Mat.21
f 36/7/23 30/6/23 38/5/24 35/1/23
f 37/4/26 39/8/25 30/6/23 36/7/23
f 30/6/23 41/9/23 40/2/27 38/5/24
f 39/8/25 42/3/25 41/9/23 30/6/23
f 27/7/29 36/7/29 35/1/28 26/1/28
f 26/1/31 35/1/31 38/5/30 29/5/30
f 28/4/32 37/4/32 36/7/29 27/7/29
f 31/8/34 39/8/34 37/4/33 28/4/33
f 32/2/36 40/2/36 41/9/35 33/9/35
f 29/5/30 38/5/30 40/2/37 32/2/37
f 34/3/38 42/3/38 39/8/34 31/8/34
f 33/9/35 41/9/35 42/3/39 34/3/39

v -1.46123027801514 1.84188878536224 0.07217431813478
v -1.83751261234283 2.74951720237732 -0.53583055734634
v -2.21379494667053 3.65714573860168 -1.14383542537689
v -0.93331664800644 1.30420577526093 -1.05719327926636
v -1.33691346645355 2.19023013114929 -1.66768062114716
v -1.6858811378479 3.11946272850037 -2.27320313453674
v -0.40540292859077 0.76652270555496 -2.1865611076355
v -0.78168517351151 1.67415118217468 -2.7945659160614
v -1.15796744823456 2.58177971839905 -3.4025707244873
v -1.48854494094849 1.82028472423553 0.06969187408686
v -1.86482715606689 2.72791314125061 -0.53831297159195
v -2.2411093711853 3.63554167747498 -1.1463178396225
v -0.9606311917305 1.28260171413422 -1.05967581272125
v -1.71319568157196 3.09785866737366 -2.27568554878235
v -0.43271747231483 0.74491858482361 -2.1890435218811
v -0.80899971723557 1.65254712104797 -2.79704833030701
v -1.18528199195862 2.56017565727234 -3.40505313873291
# 17 vertices

vn -0.86182945966721 -0.47550874948502 -0.17646916210651
vn -0.86182945966721 -0.47550877928734 -0.17646917700768
vn -0.86182951927185 -0.47550874948502 -0.17646914720535
vn -0.86182951927185 -0.47550874948502 -0.17646917700768
vn -0.86182951927185 -0.47550874948502 -0.17646911740303
vn -0.86182945966721 -0.47550877928734 -0.17646919190884
vn -0.86182945966721 -0.47550874948502 -0.17646920681
vn -0.38883793354034 0.39603394269943 0.83184266090393
vn -0.38883689045906 0.39603450894356 0.83184283971786
vn 0.48656949400902 -0.67843043804169 0.55043828487396
vn 0.48656967282295 -0.6784303188324 0.55043828487396
vn -0.3888358771801 0.39603513479233 0.8318430185318
vn -0.48656791448593 0.67843174934387 -0.55043804645538
vn -0.48656815290451 0.67843151092529 -0.55043816566467
vn 0.388840675354 -0.39603251218796 -0.83184206485748
vn 0.38883990049362 -0.39603292942047 -0.83184224367142
vn 0.48656934499741 -0.67843055725098 0.55043828487396
vn -0.48656836152077 0.67843121290207 -0.55043828487396
vn 0.38884145021439 -0.39603209495544 -0.83184188604355
# 19 normals

# 0 texture coordinate

o Plane.6
usemtl Mat.21
f 53/7/42 47/6/40 55/5/41 52/1/40
f 54/4/44 56/8/43 47/6/40 53/7/42
f 47/6/40 58/9/45 57/2/45 55/5/41
f 56/8/43 59/3/46 58/9/45 47/6/40
f 44/7/48 53/7/48 52/1/47 43/1/47
f 43/1/50 52/1/50 55/5/49 46/5/49
f 45/4/51 54/4/51 53/7/48 44/7/48
f 48/8/53 56/8/53 54/4/52 45/4/52
f 49/2/55 57/2/55 58/9/54 50/9/54
f 46/5/49 55/5/49 57/2/56 49/2/56
f 51/3/57 59/3/57 56/8/53 48/8/53
f 50/9/54 58/9/54 59/3/58 51/3/58

v 0.78975665569305 1.87147295475006 1.11029505729675
v 1.6825031042099 2.35578536987305 1.29702472686768
v 2.57524943351746 2.84009766578674 1.48375451564789
v 1.3176703453064 1.33378994464874 -0.01907264441252
v 2.2033851146698 1.85116338729858 0.14863006770611
v 3.10316324234009 2.30241465568542 0.35438680648804
v 1.84558403491974 0.79610687494278 -1.14844036102295
v 2.7383303642273 1.28041923046112 -0.96171057224274
v 3.63107681274414 1.76473164558411 -0.77498084306717
v 0.78272497653961 1.90453410148621 1.09126794338226
v 1.67547142505646 2.3888463973999 1.27799773216248
v 2.56821775436401 2.87315893173218 1.4647274017334
v 1.31063866615295 1.36685109138489 -0.03809966519475
v 3.09613156318665 2.33547592163086 0.33535978198051
v 1.8385523557663 0.82916796207428 -1.16746735572815
v 2.73129892349243 1.31348037719727 -0.98073756694794
v 3.6240451335907 1.79779279232025 -0.79400783777237
# 17 vertices

vn -0.31851226091385 0.789435505867 -0.52472996711731
vn -0.38883799314499 0.39603379368782 0.83184266090393
vn -0.38883832097054 0.39603435993195 0.83184230327606
vn -0.9032946228981 -0.34153971076012 -0.25963324308395
vn -0.9032946228981 -0.34153977036476 -0.25963321328163
vn -0.38883861899376 0.39603489637375 0.8318418264389
vn 0.90329450368881 0.34154030680656 0.25963288545609
vn 0.90329456329346 0.3415399491787 0.25963312387466
vn 0.38883823156357 -0.39603406190872 -0.83184242248535
vn 0.38883832097054 -0.39603427052498 -0.83184230327606
vn -0.9032946228981 -0.34153968095779 -0.25963327288628
vn 0.90329468250275 0.34153959155083 0.25963333249092
vn 0.38883817195892 -0.39603388309479 -0.83184254169464
# 13 normals

# 0 texture coordinate

o Plane.5
usemtl Mat.21
f 70/7/59 64/6/59 72/5/59 69/1/59
f 71/4/59 73/8/59 64/6/59 70/7/59
f 64/6/59 75/9/59 74/2/59 72/5/59
f 73/8/59 76/3/59 75/9/59 64/6/59
f 61/7/61 70/7/61 69/1/60 60/1/60
f 60/1/63 69/1/63 72/5/62 63/5/62
f 62/4/64 71/4/64 70/7/61 61/7/61
f 65/8/66 73/8/66 71/4/65 62/4/65
f 66/2/68 74/2/68 75/9/67 67/9/67
f 63/5/62 72/5/62 74/2/69 66/2/69
f 68/3/70 76/3/70 73/8/66 65/8/66
f 67/9/67 75/9/67 76/3/71 68/3/71

